<svg width="157" height="109" viewBox="0 0 157 109" fill="none" xmlns="http://www.w3.org/2000/svg">
<g clip-path="url(#clip0)">
<path d="M112.255 74.3495C112.255 84.1896 106.405 87.6254 99.1887 87.6254C91.9726 87.6254 86.1228 84.1896 86.1228 74.3495C86.1228 64.5094 99.1887 51.9912 99.1887 51.9912C99.1887 51.9912 112.255 64.5094 112.255 74.3495Z" fill="#2864AD"/>
<path d="M98.8465 77.8849L104.415 67.6966L98.8674 76.593L98.9276 72.8902L102.766 65.5191L98.9436 71.9101L99.0517 65.2503L103.162 59.3821L99.0687 64.2031L99.1363 51.9912L98.7297 67.465L94.5678 61.0945L98.6794 68.7708L98.29 76.2087L98.2785 76.0113L93.4613 69.2803L98.2638 76.7087L98.2151 77.6389L98.2064 77.653L98.2105 77.7293L97.2226 87.6548H98.5423L98.7008 86.8529L103.492 79.4427L98.7127 86.1202L98.8465 77.8849Z" fill="#3F3D56"/>
<path d="M157 42.7099C157 61.507 145.825 68.0702 132.041 68.0702C118.256 68.0702 107.082 61.507 107.082 42.7099C107.082 23.9128 132.041 0 132.041 0C132.041 0 157 23.9128 157 42.7099Z" fill="#F2F2F2"/>
<path d="M131.132 65.1948L131.387 49.4634L142.025 30.0013L131.427 46.9955L131.542 39.922L138.874 25.8415L131.573 38.0501V38.0503L131.779 25.3282L139.63 14.1183L131.812 23.3277L131.941 0L131.129 30.8817L131.196 29.6077L123.214 17.3896L131.068 32.0532L130.324 46.2615L130.302 45.8844L121.1 33.0267L130.274 47.2166L130.181 48.9936L130.165 49.0203L130.172 49.1661L128.285 85.2137H130.806L131.109 66.5945L140.261 52.4393L131.132 65.1948Z" fill="#3F3D56"/>
<path d="M155.975 82.0661C155.975 87.6765 119.581 108.732 77.0353 108.732C34.4899 108.732 0 97.835 0 92.2246C0 86.6142 33.6433 93.2828 76.1888 93.2828C118.734 93.2828 155.975 76.4557 155.975 82.0661Z" fill="#3F3D56"/>
<path opacity="0.1" d="M155.975 82.0661C155.975 87.6765 119.581 108.732 77.0353 108.732C34.4899 108.732 0 97.835 0 92.2246C0 86.6142 33.6433 93.2828 76.1888 93.2828C118.734 93.2828 155.975 76.4557 155.975 82.0661Z" fill="black"/>
<path d="M155.975 82.0662C155.975 87.6766 119.581 102.383 77.0353 102.383C34.4899 102.383 0 97.8351 0 92.2247C0 86.6143 33.6433 86.9338 76.1888 86.9338C118.734 86.9338 155.975 76.4558 155.975 82.0662Z" fill="#3F3D56"/>
<path opacity="0.1" d="M77.8973 95.8214C95.9644 95.8214 110.611 94.6885 110.611 93.291C110.611 91.8936 95.9644 90.7607 77.8973 90.7607C59.8303 90.7607 45.1841 91.8936 45.1841 93.291C45.1841 94.6885 59.8303 95.8214 77.8973 95.8214Z" fill="black"/>
<path d="M51.9818 42.5869C51.9818 42.5869 61.5589 42.7643 59.7854 44.4491C58.0118 46.134 51.3611 44.4491 51.3611 44.4491L51.9818 42.5869Z" fill="#A0616A"/>
<path d="M32.0279 22.1216C32.0279 22.1216 35.8946 21.4311 37.239 24.5526C38.5835 27.6741 41.3447 36.5765 41.3447 36.5765C41.3447 36.5765 48.734 41.4677 50.078 41.307C51.422 41.1463 53.7196 41.4742 53.2982 42.9405C52.8767 44.4067 53.0638 46.0694 52.0935 46.2732C51.1233 46.477 49.5801 44.5318 48.3991 45.4687C47.2181 46.4056 36.693 42.9835 36.0172 42.2744C35.3415 41.5654 29.7261 26.2115 29.7261 26.2115C29.7261 26.2115 29.9507 22.0716 32.0279 22.1216Z" fill="#2864AD"/>
<path d="M40.3209 88.0342L40.7643 91.7586L37.0399 92.7341L34.9116 91.7586V88.4775L40.3209 88.0342Z" fill="#A0616A"/>
<path d="M30.3004 90.4277L30.7438 94.1521L27.0194 95.1276L24.8911 94.1521V90.8711L30.3004 90.4277Z" fill="#A0616A"/>
<path d="M40.6756 47.3309L42.3604 53.4496L44.8434 65.8643C44.8434 65.8643 45.5528 68.8793 44.134 72.5151C42.7151 76.1508 40.1435 88.0335 40.6756 88.7429C41.2076 89.4523 34.6456 89.9843 34.7342 89.2749C34.8229 88.5655 35.7097 78.8111 35.7097 78.8111C35.7097 78.8111 36.9512 70.2095 37.5719 69.1453C38.1926 68.0812 34.7342 65.4209 34.7342 65.4209C34.7342 65.4209 33.8475 75.6187 32.5173 76.5055C31.1872 77.3923 31.3645 91.1371 30.7438 91.3145C30.1231 91.4918 25.6006 92.2013 25.0685 91.3145C24.5364 90.4277 25.0685 75.6187 25.0685 75.6187C25.0685 75.6187 28.0835 64.3568 27.4628 62.7606C26.842 61.1645 27.1967 54.3364 27.1967 54.3364C27.1967 54.3364 24.8911 49.1044 26.1326 46.3555L40.6756 47.3309Z" fill="#2F2E41"/>
<path d="M40.4095 13.2787C40.4095 13.2787 36.6851 17.8899 36.8624 19.9294C37.0398 21.969 31.0098 16.205 31.0098 16.205C31.0098 16.205 35.3549 10.3524 35.3549 9.1109C35.3549 7.86943 40.4095 13.2787 40.4095 13.2787Z" fill="#A0616A"/>
<path d="M40.3651 15.008C43.5974 15.008 46.2178 12.3877 46.2178 9.15539C46.2178 5.92306 43.5974 3.30273 40.3651 3.30273C37.1328 3.30273 34.5125 5.92306 34.5125 9.15539C34.5125 12.3877 37.1328 15.008 40.3651 15.008Z" fill="#A0616A"/>
<path d="M25.6156 44.0134C25.3504 45.0013 25.0215 46.1213 25.0685 47.0648C25.0986 47.6758 26.7205 48.0766 28.9631 48.3391C31.0426 48.5829 33.6559 48.7071 36.0315 48.7709C38.526 48.8383 40.7562 48.8383 41.8283 48.8383C45.0207 48.8383 42.4491 46.7988 41.2076 45.8233C39.9661 44.8479 40.2322 31.0143 40.3208 29.2408C40.4095 27.4673 39.5227 22.324 39.5227 21.3486C39.5227 20.3731 37.4362 17.8272 37.4362 17.8272C37.4362 17.8272 36.9511 19.2203 35.0002 17.3581C33.0494 15.4959 30.4777 14.9639 30.4777 14.9639C28.5268 15.6733 25.2458 23.4768 25.0685 24.807C24.9966 25.347 25.056 28.1128 25.1766 31.2706C25.3513 35.8862 25.6564 41.3425 25.8665 41.9215C26.0324 42.3782 25.8488 43.1444 25.6156 44.0134Z" fill="#2864AD"/>
<path d="M35.089 49.1934L35.7097 51.4103L33.3154 53.8933L32.5173 50.4348L35.089 49.1934Z" fill="#A0616A"/>
<path d="M35.887 90.7827C35.887 90.7827 37.7492 92.9109 39.1681 91.4921C40.5869 90.0733 40.4982 89.1865 40.7642 89.1865C41.0303 89.1865 45.0207 92.7336 45.0207 92.7336C45.0207 92.7336 51.8488 94.3298 48.1244 95.4826C44.4 96.6354 33.8475 95.8373 33.8475 95.4826C33.8475 95.1279 33.5814 90.428 34.5569 90.428L35.887 90.7827Z" fill="#2F2E41"/>
<path d="M25.8665 93.1763C25.8665 93.1763 27.7287 95.3045 29.1476 93.8857C30.5664 92.4668 30.4777 91.5801 30.7437 91.5801C31.0098 91.5801 35.0002 95.1271 35.0002 95.1271C35.0002 95.1271 41.8283 96.7233 38.1039 97.8761C34.3795 99.0289 23.827 98.2308 23.827 97.8761C23.827 97.5214 23.5609 92.8216 24.5364 92.8216L25.8665 93.1763Z" fill="#2F2E41"/>
<path d="M33.7943 13.827C33.6053 13.9492 33.3591 14.0729 33.1698 13.9512C32.466 12.1958 31.9399 10.3744 31.5994 8.51407C31.4799 7.86064 31.397 7.13423 31.76 6.57791C31.9031 6.3585 32.1092 6.17908 32.2141 5.93899C32.3729 5.5754 32.2684 5.15455 32.3212 4.76131C32.4317 3.93748 33.2105 3.36288 33.9936 3.0842C34.7767 2.80553 35.6272 2.71909 36.3737 2.35341C37.0824 2.0062 37.6501 1.43035 38.3074 0.993372C38.9646 0.556393 39.8065 0.257614 40.5384 0.552895C41.1859 0.814113 41.5893 1.47411 42.2013 1.81016C42.6166 2.03821 43.0986 2.10167 43.5622 2.19956C44.8506 2.47293 46.0604 3.03496 47.1003 3.84335C47.3533 4.02384 47.5715 4.24874 47.7442 4.50714C48.5296 5.80019 47.1234 7.55816 47.7438 8.93799L46.4026 7.87967C46.0444 7.56637 45.6404 7.30965 45.2047 7.1184C44.7604 6.95012 44.2343 6.92979 43.8308 7.18045C43.2644 7.53224 43.1108 8.26717 42.913 8.90385C42.7151 9.54052 42.2777 10.2465 41.6112 10.2302C40.7047 10.208 40.3878 8.94307 39.5743 8.54258C39.044 8.28151 38.3766 8.45344 37.9245 8.83421C37.4725 9.21495 37.2012 9.7674 37.0023 10.3239C36.8779 10.6717 36.7613 11.0638 36.5405 11.3652C36.2969 11.6977 35.9854 11.7245 35.7253 11.9728C35.0482 12.6191 34.6319 13.2859 33.7943 13.827Z" fill="#2F2E41"/>
<path opacity="0.1" d="M25.6156 44.0132C26.7178 45.6121 27.9602 47.2615 28.9631 48.3389C31.0426 48.5827 33.6559 48.7069 36.0315 48.7707C35.6071 48.1953 35.0764 47.7065 34.4682 47.3306C33.3154 46.6212 30.5664 38.1969 30.5664 38.1969C30.5664 38.1969 33.9361 29.5066 34.8229 26.2256C35.7096 22.9446 32.2513 21.0824 32.2513 21.0824C30.6551 19.7522 27.9061 22.8559 27.9061 22.8559C27.9061 22.8559 26.5032 27.0875 25.1766 31.2704C25.3513 35.886 25.6564 41.3423 25.8665 41.9214C26.0324 42.378 25.8488 43.1442 25.6156 44.0132Z" fill="black"/>
<path d="M31.9852 20.3734C31.9852 20.3734 35.4436 22.2356 34.5568 25.5166C33.6701 28.7977 30.3003 37.488 30.3003 37.488C30.3003 37.488 33.0493 45.9122 34.2021 46.6216C35.3549 47.3311 36.9511 49.0159 35.7096 49.9027C34.4681 50.7894 33.5814 52.2083 32.6946 51.7649C31.8078 51.3215 31.8078 48.8386 30.3003 48.8386C28.7928 48.8386 22.6742 39.6162 22.5855 38.6408C22.4968 37.6653 27.64 22.1469 27.64 22.1469C27.64 22.1469 30.389 19.0432 31.9852 20.3734Z" fill="#2864AD"/>
<path d="M103.898 44.6105L102.901 43.6129C102.319 43.031 101.53 42.7041 100.707 42.7041C99.8838 42.7041 99.0946 43.031 98.5127 43.6129L79.1626 62.963L59.8124 43.6129C59.2305 43.031 58.4413 42.7041 57.6184 42.7041C56.7955 42.7041 56.0063 43.031 55.4244 43.6129L54.4268 44.6105C54.1387 44.8986 53.9102 45.2406 53.7543 45.6171C53.5983 45.9935 53.5181 46.397 53.5181 46.8045C53.5181 47.2119 53.5983 47.6154 53.7543 47.9919C53.9102 48.3683 54.1387 48.7103 54.4268 48.9985L73.777 68.3486L54.4268 87.6987C54.1387 87.9868 53.9102 88.3289 53.7543 88.7053C53.5983 89.0818 53.5181 89.4853 53.5181 89.8927C53.5181 90.3002 53.5983 90.7036 53.7543 91.0801C53.9102 91.4565 54.1387 91.7986 54.4268 92.0867L55.4244 93.0843C56.0063 93.6662 56.7955 93.9931 57.6184 93.9931C58.4413 93.9931 59.2305 93.6662 59.8124 93.0843L79.1626 73.7342L98.5127 93.0843C99.0946 93.6662 99.8838 93.9931 100.707 93.9931C101.53 93.9931 102.319 93.6662 102.901 93.0843L103.898 92.0867C104.48 91.5048 104.807 90.7156 104.807 89.8927C104.807 89.0698 104.48 88.2806 103.898 87.6987L84.5481 68.3486L103.898 48.9985C104.48 48.4166 104.807 47.6274 104.807 46.8045C104.807 45.9816 104.48 45.1924 103.898 44.6105Z" fill="#FF6584"/>
<path opacity="0.1" d="M53.7362 88.7512L72.5117 69.9757L72.331 69.7949L54.4268 87.6992C54.1269 87.9988 53.8918 88.3569 53.7362 88.7512Z" fill="black"/>
<path opacity="0.1" d="M54.1592 45.2395C54.7411 44.6576 55.5303 44.3307 56.3532 44.3307C57.1761 44.3307 57.9653 44.6576 58.5472 45.2395L77.8973 64.5896L97.2474 45.2395C97.8293 44.6576 98.6185 44.3307 99.4414 44.3307C100.264 44.3307 101.054 44.6576 101.635 45.2395L102.633 46.2371C103.061 46.6652 103.354 47.2091 103.477 47.8018C103.6 48.3946 103.546 49.0103 103.324 49.5731L103.898 48.9985C104.186 48.7103 104.415 48.3683 104.571 47.9918C104.727 47.6154 104.807 47.2119 104.807 46.8045C104.807 46.397 104.727 45.9935 104.571 45.6171C104.415 45.2407 104.186 44.8986 103.898 44.6105L102.901 43.6129C102.319 43.031 101.529 42.7041 100.707 42.7041C99.8837 42.7041 99.0945 43.031 98.5126 43.6129L79.1625 62.963L59.8123 43.6129C59.2305 43.031 58.4413 42.7041 57.6183 42.7041C56.7954 42.7041 56.0062 43.031 55.4244 43.6129L54.4268 44.6105C54.1269 44.9101 53.8918 45.2682 53.7362 45.6625L54.1592 45.2395Z" fill="black"/>
<path opacity="0.1" d="M84.7287 68.5303L83.2828 69.9762L102.633 89.3263C103.061 89.7544 103.354 90.2983 103.477 90.891C103.6 91.4838 103.546 92.0995 103.324 92.6623L103.898 92.0876C104.186 91.7995 104.415 91.4575 104.571 91.081C104.727 90.7046 104.807 90.3011 104.807 89.8936C104.807 89.4862 104.727 89.0827 104.571 88.7063C104.415 88.3298 104.186 87.9878 103.898 87.6997L84.7287 68.5303Z" fill="black"/>
<path d="M22.5314 81.4317C22.5314 89.6043 17.6729 92.4578 11.6797 92.4578C5.68647 92.4578 0.828003 89.6043 0.828003 81.4317C0.828003 73.2591 11.6797 62.8623 11.6797 62.8623C11.6797 62.8623 22.5314 73.2591 22.5314 81.4317Z" fill="#2864AD"/>
<path d="M11.3955 84.368L16.0209 75.9062L11.413 83.2951L11.463 80.2196L14.6507 74.0976L11.4762 79.4057L11.566 73.8745L14.9795 69.0006L11.5801 73.0048L11.6363 62.8623L11.2986 75.7139L7.84196 70.423L11.2567 76.7983L10.9334 82.9759L10.9238 82.8119L6.92297 77.2216L10.9116 83.3912L10.8712 84.1638L10.8639 84.1754L10.8673 84.2388L10.0468 92.4822H11.143L11.2746 91.8163L15.2535 85.6619L11.2845 91.2077L11.3955 84.368Z" fill="#3F3D56"/>
</g>
<defs>
<clipPath id="clip0">
<rect width="157" height="108.732" fill="white"/>
</clipPath>
</defs>
</svg>
